<svg xmlns="http://www.w3.org/2000/svg" width="8.1in" height="8.1in" viewBox="0 0 583.21 583.21">
  <defs>
    <style>
      .a {
        fill: #560105;
      }

      .b {
        fill: #a30d11;
      }

      .c {
        fill: #745a54;
        stroke-width: 33.85px;
      }

      .c, .e, .f, .h {
        stroke: #a30d11;
      }

      .c, .e, .f, .h, .i {
        stroke-miterlimit: 10;
      }

      .d {
        fill: #c8b49c;
      }

      .e {
        fill: #fcdccc;
      }

      .e, .f, .h {
        stroke-width: 22.57px;
      }

      .f {
        fill: #4d664d;
      }

      .g {
        fill: #663d27;
      }

      .h, .i {
        fill: none;
      }

      .i, .j, .k, .m {
        stroke: #231f20;
      }

      .i, .j {
        stroke-width: 8.46px;
      }

      .j, .k, .m {
        fill: #231f20;
        stroke-linejoin: round;
      }

      .j {
        stroke-linecap: round;
      }

      .k {
        stroke-width: 5.64px;
      }

      .l {
        fill: #fff;
      }

      .m {
        stroke-width: 2.82px;
      }
    </style>
  </defs>
  <circle class="a" cx="291.61" cy="291.61" r="291.61"/>
  <path class="b" d="M86.84,318.79a17.47,17.47,0,0,0,12-5,17.16,17.16,0,0,0,5-12c-.2-4.37-1.64-8.91-5-12a16.95,16.95,0,0,0-23.94,0c-2.94,2.94-5.15,7.76-5,12,.2,4.38,1.64,8.92,5,12a17.58,17.58,0,0,0,12,5Z" transform="translate(-16.31 -74.51)"/>
  <circle class="c" cx="290.9" cy="289.55" r="231.09"/>
  <g>
    <path class="d" d="M425,508.81l-2.16,29.83c-27.79,7.55-55.58,14.14-83.38,14.14,0,0,0-2,0-3.65,10.29-.1,12.73-7.54,12.73-16V477c0-8.6-2.44-15.22-12.73-15.13,0-1.62,0-3.79,0-3.79,26.17,0,52.34-5.84,78.5-12.83q1.1,14.32,2.17,28.65L416,475c-4.33-12.41-11-20.89-22.6-18.27-6.09,1.35-12.18,2.56-18.27,3.57v39.25l1.76-.3c11.64-2,19.22-3.91,20.44-21.08l3.65-.86v39.25l-3.65.86c-1.22-16.67-8.8-14.79-20.44-12.76-.58.11-1.17.2-1.76.3v39.39c7.71-1.28,15.43-2.88,23.14-4.68,11.65-2.75,18.14-14.86,22.47-29.67Z" transform="translate(-16.31 -74.51)"/>
    <path class="d" d="M480.57,462.12v3.65c-6.77,1.52-9.61,5.64-11.78,11.58q-9.81,26.88-19.62,54c-5.55,15.71-13.13,38.17-27.75,42.16-4.73,1.29-10,.63-11.9-3.76-3-7.22,2.7-15.16,7-18.35,2.44,3.69,6.5,4.63,12.05,2.69,5.95-2.32,11.1-8.09,15.56-20.15-8.84-15-17.68-29.89-26.53-44.94-2.29-3.59-5-5.3-10.82-3.83v-3.65c13.17-3.31,26.35-7.08,39.52-10.71v3.66c-6,1.64-7.58,4.26-4.88,10.15q6,11.31,12.05,22.68,5.21-14.4,10.42-28.74c3-8.2-.13-8.79-7.17-6.92V468C464.69,465.9,472.63,463.89,480.57,462.12Z" transform="translate(-16.31 -74.51)"/>
    <path class="d" d="M534.87,497.24c-4.46,10.2-14.21,20.57-30.85,23-20.44,3.15-34-6.13-35.33-22.14-1.9-21.21,14.48-38.54,34.79-41.65,18.13-2.75,30.31,7.3,29.63,25.11a256.07,256.07,0,0,0-41.82,11.63c3.25,16.51,29.37,14.66,41.28,2.18A27.14,27.14,0,0,1,534.87,497.24Zm-44.39-9.18c7.4-2.71,14.8-5.16,22.2-7.25.67-13-2.31-21.39-11.64-19.13C492.51,463.88,488.86,475.54,490.48,488.06Z" transform="translate(-16.31 -74.51)"/>
  </g>
  <path class="e" d="M124.43,390.24c-3.55-6.29-1.83-14.66,3.81-18.44s17.08-11.8,36-26.43c29.08-22.51,80-69.62,134.49-76.43s135,19,183.56,66.48c18.17,17.8,13,28.67-4.15,48.61-16.31,19-79,73.35-161.69,76S167.09,445.33,134.7,404.51C129.62,398.11,126.37,393.69,124.43,390.24Z" transform="translate(-16.31 -74.51)"/>
  <circle class="f" cx="290.9" cy="288.16" r="85.26"/>
  <g>
    <path class="d" d="M165.44,299.53v3.65c0,.06-25.86,4.79-26.26,4.77-6.9,1.18-11.5-.41-14.62-6-2.57-4.45-12.45-22.28-16.1-28.89-2.58.45-5.42.78-8.39,1.1l-3,.3V294.6c0,8.5,2.3,15.41,12.72,14.12v3.65a384.8,384.8,0,0,1-48.45,3.34v-3.65c10.42-.06,12.72-7.34,12.72-15.83V240.07c0-8.57-2.3-15.37-12.72-15.31V221a366.76,366.76,0,0,0,38.71-2.2c30.45-3.48,47.23,1.51,47.23,20.77,0,11.22-6,20-17.19,26.19q7.44,11.07,14.89,22C149.87,294.71,155.15,301.48,165.44,299.53Zm-42.63-55.94c0-14.67-7.32-21.09-23.28-19.35l-2.44.25v44.66l2.44-.25C115.49,267.16,122.81,258.15,122.81,243.59Z" transform="translate(-16.31 -74.51)"/>
    <path class="d" d="M210.2,267.17c-4.46,10.92-14.21,23.1-30.85,26.29-20.44,4-34-6.77-35.33-22.79-1.89-21.44,14.48-37.05,34.79-41,18.13-3.49,30.31,4.1,29.64,22.09-13.94,4.82-27.89,9.9-41.83,14.88,3.25,16.86,29.37,14,41.29-1A21.22,21.22,0,0,1,210.2,267.17Zm-44.39-5.64q11.1-4,22.2-8c.68-13.12-2.3-21.09-11.64-18.49C167.84,237.46,164.19,249,165.81,261.53Z" transform="translate(-16.31 -74.51)"/>
    <path class="d" d="M292.76,266.89c-3.24,6.92-8,10.05-15.56,10.4-7,.35-12.18-1.11-15-5.33a29.76,29.76,0,0,1-16.79,8.15c-20.44,2.6-35.19-7.42-35.19-26.56s14.62-37.54,35.19-37.32a21.42,21.42,0,0,1,14.35,5.47v-9.2c0-8.51-1.36-15.51-11.64-14.33v-3.79c7.85-1,21.65-5.46,29.91-13.08,2.3-.11,3.65-.15,3.65-.15v75.39c0,6.5.14,11.21,3.39,11.94,2.3.49,4.06-.62,5.41-2.93Zm-34.51-22.45c-2.84-15.83-9.34-24.78-17.59-22.32s-11,14.3-8.12,30.1,9.34,24.35,17.59,22S261.09,260.43,258.25,244.44Z" transform="translate(-16.31 -74.51)"/>
  </g>
  <polygon class="g" points="256.03 273.82 267.51 264.53 327.18 266.95 327.18 279.6 269.73 288.16 256.03 273.82"/>
  <path class="h" d="M143.11,364.06s12.81,33,0,39.95" transform="translate(-16.31 -74.51)"/>
  <path class="i" d="M344.38,360.58s13.27-3.11,14.06,1.62c2.16,13-27.69,24.63-29.59,24.9" transform="translate(-16.31 -74.51)"/>
  <path class="j" d="M347.69,347c-1.49.27-9.91,16.4-39.73,14.39s-37.1-11.67-37.1-11.67,3,48.24,34.82,48.24S349.27,346.7,347.69,347Z" transform="translate(-16.31 -74.51)"/>
  <path class="i" d="M270.85,349.72s12.57-12.6,37.1-12.41c23.88.2,39.16,7.77,39.78,9.63" transform="translate(-16.31 -74.51)"/>
  <path class="k" d="M307.91,326.48s-8.64-26.09-5.38-35.55c3.38-9.85.3-33.71.3-33.71s-8.46,26.94-9.23,32.17C292.78,295,299.6,317.24,307.91,326.48Z" transform="translate(-16.31 -74.51)"/>
  <path class="l" d="M310.39,395.44c-26.64,4-33.69-29.32-33.69-29.32C288.19,380.52,296.36,390.72,310.39,395.44Z" transform="translate(-16.31 -74.51)"/>
  <path class="m" d="M316.38,289.39s-13.36,10.7.92,38.78c4.46,8.77-7.54,21.55-7.54,21.55s28.11-7.34,13-35.4C314.38,298.62,316.38,289.39,316.38,289.39Z" transform="translate(-16.31 -74.51)"/>
</svg>
